<?xml version="1.0" encoding="UTF-8"?>
<!DOCTYPE svg PUBLIC "-//W3C//DTD SVG 1.1//EN" "http://www.w3.org/Graphics/SVG/1.1/DTD/svg11.dtd">
<!-- Creator: CorelDRAW -->
<svg xmlns="http://www.w3.org/2000/svg" xml:space="preserve" width="83.2183mm" height="137.044mm" version="1.1" style="shape-rendering:geometricPrecision; text-rendering:geometricPrecision; image-rendering:optimizeQuality; fill-rule:evenodd; clip-rule:evenodd"
viewBox="0 0 1906.41 3139.48"
 xmlns:xlink="http://www.w3.org/1999/xlink"
 xmlns:xodm="http://www.corel.com/coreldraw/odm/2003">
 <defs>
  <style type="text/css">
   <![CDATA[
    .fil0 {fill:#D2D3D5;fill-rule:nonzero}
   ]]>
  </style>
 </defs>
 <g id="Camada_x0020_1">
  <metadata id="CorelCorpID_0Corel-Layer"/>
  <path class="fil0" d="M744.35 0l55.43 129.52 -5.77 0.29 4.49 3.24 -488.76 310.33 -304.21 -284.28 -5.53 5.9 302.69 282.86 -281.9 178.98 -19.7 5.05 579.44 75.6 638.43 596.6 -785.34 17.86 0.19 8.08 790.25 -17.97 -113.38 598.82 -433.55 267.45 380.34 953.91 -0.31 7.25 849.25 -585.63 0 -9.82 -840.47 579.58 52.09 -1204.29 788.38 322.63 0 -8.73 -785.29 -321.37 785.29 -873.61 0 -12.09 -785.47 873.82 111.6 -589.26 673.87 -310.71 0 -8.9 -676.67 312 -635.45 -593.82 341.24 44.52 970.88 207.89 0 -8.27 -961.99 -205.98 298.26 -293.31 663.73 479.8 0 -9.97 -657.88 -475.57 182.27 -179.25 449.34 94.7 26.27 202.87 0 -62.93 -17.9 -138.17 17.9 3.77 0 -8.26 -18.99 -4 -22.13 -170.89 41.13 1.9 0 -8.09 -42.18 -1.95 -12.01 -92.72 54.19 -2.69 0 -8.09 -55.23 2.74 -10.02 -77.33 -8.15 0 10.07 77.73 -229.21 11.38 90.61 -89.11 -11.54 0 -91.22 89.71 -755.05 37.48 508.7 -127.19 -33.31 0 -505.02 126.27 108.48 -126.27 -10.66 0 -106.69 124.18 -22.22 -124.18 -8.21 0 17.73 99.11 -42.41 -99.11 -8.72 0zm1162.05 1564.33l0 -8.16 -78.41 10.92 78.41 -61.39 0 -10.26 -55 43.06 55 -59.2 0 -11.88 -85.05 91.55 85.05 -344.58 0 -33.72 -96.31 390.17 -10.72 8.39 8.95 -1.25 -2.31 9.36 9.64 -10.38 90.73 -12.63zm-967.74 -822.56l-126.93 -599.15 424.3 306.72 -297.37 292.44zm-272.71 -272l259.54 274.58 -341.35 -44.54 -175.56 -164.06 257.37 -65.98zm6.04 -5.37l132.43 -317.6 124.87 589.81 -257.3 -272.21zm847.79 -294.12l-91.58 90.06 -572.85 -120.73 664.43 30.67zm-629.64 -37.15l702.9 -34.89 -65.4 64.32 -637.5 -29.43zm640.66 37.66l326.27 15.06 21.95 169.5 -441.32 -93.01 93.1 -91.55zm7.86 -7.73l66.53 -65.43 238.92 -11.86 11.91 91.94 -317.36 -14.65zm-117.37 104.08l-179.42 176.45 -418.38 -302.43 597.8 125.99zm-624.26 -123.58l-132.73 318.29 -262.72 67.36 -85.75 -80.13 481.2 -305.51zm-488.25 309.99l83.51 78.04 -346.24 88.77 262.73 -166.81zm-265.06 175.75l355.58 -91.16 171.09 159.88 -526.67 -68.72zm1066.18 1291.57l-51.58 1191.67 -371.17 -930.89 422.75 -260.78z"/>
 </g>
</svg>
