<?xml version="1.0" encoding="UTF-8"?>
<!DOCTYPE svg PUBLIC "-//W3C//DTD SVG 1.1//EN" "http://www.w3.org/Graphics/SVG/1.1/DTD/svg11.dtd">
<!-- Creator: CorelDRAW -->
<svg xmlns="http://www.w3.org/2000/svg" xml:space="preserve" width="131.06mm" height="180.792mm" version="1.1" style="shape-rendering:geometricPrecision; text-rendering:geometricPrecision; image-rendering:optimizeQuality; fill-rule:evenodd; clip-rule:evenodd"
viewBox="0 0 8980.63 12388.34"
 xmlns:xlink="http://www.w3.org/1999/xlink"
 xmlns:xodm="http://www.corel.com/coreldraw/odm/2003">
 <defs>
  <style type="text/css">
   <![CDATA[
    .fil0 {fill:#D2D3D5;fill-rule:nonzero}
   ]]>
  </style>
   <mask id="id0">
  <linearGradient id="id1" gradientUnits="userSpaceOnUse" x1="10670.25" y1="5192.87" x2="2158.47" y2="8458.4">
   <stop offset="0" style="stop-opacity:1; stop-color:white"/>
   <stop offset="0.560784" style="stop-opacity:0.745098; stop-color:white"/>
   <stop offset="1" style="stop-opacity:0.486275; stop-color:white"/>
  </linearGradient>
    <rect style="fill:url(#id1)" x="-1592.98" y="-251.66" width="10573.78" height="16241.99"/>
   </mask>
 </defs>
 <g id="Camada_x0020_1">
  <metadata id="CorelCorpID_0Corel-Layer"/>
  <path class="fil0" style="mask:url(#id0)" d="M8980.63 11155.05l-2106.33 -53.34 -1249.25 -1122.2 1541.87 -1189.25 5.96 3.23 335.51 -1061.97 85.58 -50.43 -95.5 29.65 -1317.4 -459.87 543.68 -368.51 84.32 -2.81 -80.95 -19.82 -815.04 -1146.69 -0.36 -0.52 -3885.33 -5380.64 -275.32 -331.86 4127.07 5706.8 -1596.69 -74.44 1.72 -10.61 -1.1 0.58 143.28 -1204.77 -7.66 1.31 -2450.35 -4103.97 -216.28 -314.89 2641.25 4423.2 -2158.54 369.52 -429.5 -4491.03 -53.21 -301.69 457.78 4785.46 -920.17 -499.44 450.89 -3984.33 11.5 -301.69 -485.3 4273.58 -273.54 -148.48 -148.28 -1288.57 907.13 -2836.54 -125.38 301.69 -803.57 2523.68 -823.1 220.23 0 25.02 822.21 -219.99 145.15 1260.44 -967.36 -525.05 0 27.51 970.74 526.89 155.2 1347.58 -16.79 -4.11 10.11 13.16 -1119.25 316.96 0 25.12 1106.05 -313.22 -652.47 798.96 -453.57 -17.59 0 24.2 451.55 17.51 509.34 1008.85 -940.43 -419.37 -20.47 -34.97 0 52.31 3.54 1.58 1320.24 2255.73 -1323.78 -362.08 0 25.07 1331.59 364.21 -836.73 1619.63 -494.86 133.24 0 25.04 484.11 -130.34 -484.11 1399.75 0 73.74 508.7 -1470.99 1859.37 1497.97 38.52 0 -1882.66 -1516.72 3182.55 -1946.24 -916.16 1557.5 -37.89 14.89 26.72 4.08 -14.62 24.85 36.51 -21.51 707.99 108.01 -226.79 1775.14 24.37 0 226.32 -1771.49 1696.38 258.8 1106.37 1461.68 -227.36 51 110.45 0 130.65 -29.31 12.28 29.31 26.2 0 -14.53 -34.68 4.25 -0.95 -10.41 -13.76 -3.33 -7.93 -2.29 0.51 -1098 -1450.64 1644.12 250.83 -5.71 -5.13 2078.01 52.63 0.61 -24.17zm-7487.78 -10835.43l-1492.84 1976.02 0 41.15 1751.73 -2328.29 -258.89 311.13zm4112.37 9644.64l-575.13 -335.86 2060.99 -810.17 -1485.86 1146.03zm-601.71 -351.38l-345.57 -201.81 1751.59 -1032.08 727.68 395.13 -2133.7 838.76zm-3646.45 -369.2l2328.01 -333.53 -3151.48 1927.24 823.47 -1593.71zm-883.59 -2904.92l651.05 -797.23 -146.1 1797.39 -504.95 -1000.17zm5110.66 557.35l-405.21 -390.83 1453.72 355.94 -1048.52 34.88zm-21.62 12.72l-88.35 95.25 -1338.53 -467.25 44.81 -276.02 951.85 233.05 430.23 414.97zm822.23 1456.71l-1750.71 1031.57 -862.8 -503.85 2281.09 -708.22 332.42 180.5zm-300.19 -190.51l1317.99 -409.2 -993.51 585.4 -324.48 -176.19zm-2929.54 -1954.9l-339.47 179.89 -1538.88 -835.58 1878.35 655.69zm-1773.03 -644.54l2044.59 500.63 -242.43 128.47 -1802.16 -629.1zm1804.15 655.41l922.41 321.98 -81.92 504.64 -1185.59 -643.75 345.09 -182.87zm29.14 -15.45l246.61 -130.69 695.02 170.18 -44.42 273.7 -897.21 -313.19zm278.74 -147.71l758.54 -401.98 -91.75 565.24 -666.79 -163.26zm-35.31 -8.65l-2196.34 -537.78 2961.14 132.48 -764.8 405.3zm-668.79 354.41l-665.09 352.45 -940.83 -1224.43 1605.92 871.98zm25.5 13.84l1207.11 655.45 -288.49 1777.17 -0.84 -1.12 -0.03 0.3 -1593.41 -2073.75 675.66 -358.05zm1229.6 667.65l894.3 485.59 -1179.56 1271.64 285.25 -1757.23zm-459.51 2919.84l-752.76 443.55 889.23 -1511.68 -136.47 1068.13zm-3.87 30.34l-17.02 133.25 -628.26 246.97 645.29 -380.22zm-20.52 160.58l-48.99 383.36 -667.28 -101.8 716.27 -281.56zm188.56 -1285.08l522.11 689.79 -659.92 388.84 137.81 -1078.63zm37.91 10.02l822.6 480.37 -317.44 187.04 -505.16 -667.41zm28.05 -76.62l1542.95 -1045.82 664.08 360.58 -2207.03 685.24zm6.64 -33.7l1138.95 -1227.88 373.44 202.77 -1512.39 1025.11zm1155.92 -1246.17l502.92 -542.19 646.59 225.71 -770.52 522.27 -379 -205.79zm-21.92 -11.9l-907.16 -492.58 82.59 -508.76 1324.52 462.36 -499.95 538.98zm-771.94 -1325.53l92.25 -568.34 821.13 791.98 -913.38 -223.64zm-3006.12 -743.42l1050.18 -675.1 2170.16 -371.5 -140.86 1184.38 -3079.48 -137.77zm1022 -685.73l-1045.63 672.18 132.17 -1167.96 913.46 495.78zm-1051.19 728.05l954.13 1241.76 -1102.32 584.16 148.19 -1825.91zm969.07 1261.2l1578.77 2054.71 -2684.37 -1468.82 1105.6 -585.89zm1468.68 3398.78l869.31 -341.72 752.35 993.98 -1672.39 -255.15 50.73 -397.11zm3.49 -27.33l7.8 -61.14 9.91 -77.56 678.48 -399.77 154.47 204.07 -850.66 334.4zm717.16 -550.82l326.67 -192.48 340.79 199 -510.59 200.72 -156.87 -207.24zm2851.25 -859.35l-724.85 -393.58 1043.42 -614.81 -318.56 1008.4zm300.99 -1035.48l-1404.77 436.15 -673.78 -365.85 775.04 -525.32 1303.52 455.03zm-1307.02 -481.86l-653.59 -228.15 85.8 -92.51 1094.58 -36.41 -526.8 357.07zm-1008.3 -768.99l-844.52 -814.55 1596.97 74.46 795.39 1119.09 -1547.85 -378.99zm-3880.51 -2172.43l-124.22 1097.74 -143.01 -1242.78 267.23 145.05zm-282.32 3093.99l2722.28 1489.55 -2348.28 336.43 -1314.06 -2245.18 940.06 419.2zm4261.17 3459.76l-763.25 -1008.39 522.02 -205.21 597.57 348.96 1232.36 1107.01 -1588.7 -242.38z"/>
 </g>
</svg>
